<svg xmlns="http://www.w3.org/2000/svg" viewBox="0 0 512 512">
  <path d="M 407 65 L 374 43 L 333 25 L 288 15 L 238 13 L 198 19 L 170 27 L 137 42 L 101 66 L 65 102 L 45 131 L 27 170 L 17 207 L 14 234 L 14 265 L 17 289 L 29 333 L 43 363 L 73 386 L 99 400 L 122 409 L 165 418 L 205 418 L 242 411 L 274 399 L 312 374 L 278 383 L 240 382 L 209 373 L 193 365 L 174 351 L 149 322 L 139 304 L 131 282 L 128 266 L 128 233 L 133 208 L 140 190 L 152 170 L 176 145 L 206 127 L 242 118 L 273 119 L 305 128 L 334 145 L 363 175 L 482 175 L 483 170 L 475 151 L 457 119 L 432 88 Z M 495 221 L 318 222 L 226 317 L 377 317 L 378 320 L 358 354 L 331 384 L 301 407 L 275 421 L 234 435 L 206 440 L 175 441 L 134 436 L 103 427 L 82 418 L 112 445 L 145 466 L 179 481 L 218 491 L 239 494 L 296 493 L 332 485 L 368 471 L 399 453 L 424 433 L 445 411 L 468 378 L 485 341 L 495 304 L 499 266 Z" fill="#000" fill-rule="evenodd"/>
</svg>
