<svg width="1024" height="1024" viewBox="0 0 1024 1024" fill="none" xmlns="http://www.w3.org/2000/svg">
  <defs>
    <linearGradient id="bg" x1="0" y1="0" x2="1024" y2="1024" gradientUnits="userSpaceOnUse">
      <stop offset="0%" stop-color="#F8FAFC"/>
      <stop offset="100%" stop-color="#EEF2F7"/>
    </linearGradient>
    <linearGradient id="card" x1="256" y1="220" x2="768" y2="804" gradientUnits="userSpaceOnUse">
      <stop offset="0%" stop-color="#FFFFFF"/>
      <stop offset="100%" stop-color="#F8FAFC"/>
    </linearGradient>
    <filter id="shadow" x="180" y="160" width="664" height="704" filterUnits="userSpaceOnUse" color-interpolation-filters="sRGB">
      <feDropShadow dx="0" dy="18" stdDeviation="24" flood-color="#94A3B8" flood-opacity="0.14"/>
    </filter>
    <filter id="innerGlow" x="0" y="0" width="1024" height="1024" filterUnits="userSpaceOnUse" color-interpolation-filters="sRGB">
      <feGaussianBlur stdDeviation="80"/>
    </filter>
  </defs>

  <rect width="1024" height="1024" fill="url(#bg)"/>
  <circle cx="180" cy="160" r="120" fill="#FFFFFF" opacity="0.55" filter="url(#innerGlow)"/>
  <circle cx="860" cy="860" r="160" fill="#FFFFFF" opacity="0.42" filter="url(#innerGlow)"/>

  <g filter="url(#shadow)">
    <rect x="256" y="220" width="512" height="584" rx="40" fill="url(#card)"/>
    <rect x="256.75" y="220.75" width="510.5" height="582.5" rx="39.25" stroke="#E2E8F0" stroke-width="1.5"/>
  </g>

  <rect x="352" y="316" width="320" height="240" rx="24" fill="#F1F5F9"/>
  <rect x="352.75" y="316.75" width="318.5" height="238.5" rx="23.25" stroke="#CBD5E1" stroke-width="1.5"/>

  <circle cx="600" cy="388" r="26" fill="#CBD5E1"/>
  <path d="M384 516L470.8 432.4C477.1 426.3 487.1 426.1 493.7 431.9L549.2 480.5C555.6 486.1 565.1 486.2 571.6 480.8L603.9 453.9C610.4 448.4 619.9 448.7 626.1 454.5L640 467.4V516H384Z" fill="#CBD5E1"/>
  <path d="M384 516L470.8 432.4C477.1 426.3 487.1 426.1 493.7 431.9L515.5 451L384 516Z" fill="#BFC9D6" opacity="0.85"/>

  <rect x="420" y="612" width="184" height="20" rx="10" fill="#94A3B8"/>
  <rect x="384" y="660" width="256" height="16" rx="8" fill="#CBD5E1"/>
  <rect x="430" y="708" width="164" height="16" rx="8" fill="#D6DEE8"/>

  <circle cx="512" cy="512" r="420" stroke="#FFFFFF" opacity="0.35"/>
</svg>
